<?xml version="1.0" encoding="UTF-8"?>
<svg width="74px" height="74px" viewBox="0 0 74 74" version="1.1" xmlns="http://www.w3.org/2000/svg" xmlns:xlink="http://www.w3.org/1999/xlink">
	<g stroke="none" stroke-width="1" fill="none" fill-rule="evenodd">
		<path d="M32.2429166,29 C35.6202318,29.5143637 37.491267,30.9297915 37.856022,33.2462834 C38.220777,35.5627753 37.1955043,37.5048692 34.7802039,39.072565 C37.380646,40.0659047 38.4059187,41.9875682 37.856022,44.8375556 C37.3209873,47.6105164 34.9476793,49.314516 30.7360979,49.9495546 L30.3808776,50 L17,50 L19.6088163,29 L32.2429166,29 Z M51,29 C49.6752731,33.5087112 47.8419398,36.7218916 45.5,38.6395411 C44.635779,39.3471908 43.4853599,40.1771853 43.4853599,41.3952435 C43.4853599,43.1257358 44.8897231,42.6975377 46.0136551,44.5534129 C46.3710987,45.1436361 45.9395926,46.4345979 46.5370236,47.9396157 C46.715843,48.3900882 47.3112408,49.076883 48.3232171,50 L40,50 L42.8917372,29 L51,29 Z M64,29 C58.1761874,34.7121109 55.2642811,37.951259 55.2642811,38.7174442 C55.2642811,39.4836293 57.4063479,43.2444813 61.6904815,50 L54.016099,50 C53.9232896,49.7044102 53.8824826,49.5052192 53.8936779,49.4024269 C53.9618087,48.7768685 54.2017757,48.7768685 54.016099,48.3276879 C53.8304224,47.8785073 52.3920324,47.8005259 51.991781,47.1213358 C51.0661221,45.5505776 51.0531298,43.3683202 51.0028372,42.2137907 C50.911527,40.1176528 53.0241969,35.7130559 57.3408469,29 L64,29 Z M29.8658629,41.6631395 L24.557217,41.6631395 L24.0561482,45.3069861 L29.3718652,45.3069861 C30.410866,45.1179343 30.9919937,44.5106266 31.1152485,43.4850628 C31.2385032,42.4594991 30.8220414,41.8521913 29.8658629,41.6631395 Z M30.150945,33.9093802 L25.4318203,33.9093802 L24.9863949,37.5532267 L29.7118054,37.5532267 C30.6354259,37.3641749 31.1520199,36.7568672 31.2615873,35.7313034 C31.3711546,34.7057397 31.0009406,34.098432 30.150945,33.9093802 Z M47.6700129,15.1845283 L47.6844137,15.1968608 L58.7224215,24.8771369 C59.0565539,25.1701693 59.0943551,25.683797 58.8068528,26.0243564 C58.5232356,26.3603137 58.0289963,26.4023476 57.6949215,26.1221098 L57.6812835,26.1104117 L46.9801167,16.7256014 L12.0384973,27.9620844 C11.6232536,28.095618 11.180761,27.8652644 11.0421926,27.446655 L11.0372001,27.4310652 C10.9061865,27.0078344 11.1321929,26.5568304 11.5429023,26.4155967 L11.5581979,26.4105081 L46.923695,15.0377101 C47.1812128,14.9548977 47.4618971,15.0105134 47.6700129,15.1845283 Z" fill="#FFFFFF" fill-rule="nonzero" />
	</g>
</svg>
